<?xml version="1.0" encoding="UTF-8"?><svg id="a" xmlns="http://www.w3.org/2000/svg" xmlns:xlink="http://www.w3.org/1999/xlink" viewBox="0 0 463.51 464.84"><defs><style>.f{stroke:#fff;stroke-width:64px;}.f,.g,.h,.i,.j{fill:none;stroke-linecap:round;stroke-miterlimit:10;}.g{stroke:url(#d);}.g,.h,.i,.j{stroke-width:57px;}.h{stroke:url(#c);}.i{stroke:url(#b);}.j{stroke:url(#e);}</style><linearGradient id="b" x1="107.25" y1="269.84" x2="107.25" y2="461.34" gradientTransform="matrix(1, 0, 0, 1, 0, 0)" gradientUnits="userSpaceOnUse"><stop offset="0" stop-color="#29abe2"/><stop offset=".39" stop-color="#2aa9e0"/><stop offset=".53" stop-color="#31a4dd"/><stop offset=".64" stop-color="#3d9cd7"/><stop offset=".72" stop-color="#4e90cd"/><stop offset=".79" stop-color="#6480c2"/><stop offset=".85" stop-color="#7f6cb3"/><stop offset=".9" stop-color="#a055a2"/><stop offset=".95" stop-color="#c43b8e"/><stop offset="1" stop-color="#ed1e79"/></linearGradient><linearGradient id="c" x1="356.5" y1="197.84" x2="356.5" y2="6.5" gradientTransform="matrix(1, 0, 0, 1, 0, 0)" gradientUnits="userSpaceOnUse"><stop offset="0" stop-color="#29abe2"/><stop offset=".39" stop-color="#2aa9e0"/><stop offset=".53" stop-color="#31a4dd"/><stop offset=".64" stop-color="#3d9cd7"/><stop offset=".72" stop-color="#4e90cd"/><stop offset=".79" stop-color="#6480c2"/><stop offset=".85" stop-color="#7f6cb3"/><stop offset=".9" stop-color="#a055a2"/><stop offset=".95" stop-color="#c43b8e"/><stop offset="1" stop-color="#ed1e79"/></linearGradient><linearGradient id="d" x1="107.25" y1="194.84" x2="107.25" y2="3.5" gradientTransform="matrix(1, 0, 0, 1, 0, 0)" gradientUnits="userSpaceOnUse"><stop offset="0" stop-color="#29abe2"/><stop offset=".39" stop-color="#2aa9e0"/><stop offset=".53" stop-color="#31a4dd"/><stop offset=".64" stop-color="#3d9cd7"/><stop offset=".72" stop-color="#4e90cd"/><stop offset=".79" stop-color="#6480c2"/><stop offset=".85" stop-color="#7f6cb3"/><stop offset=".9" stop-color="#a055a2"/><stop offset=".95" stop-color="#c43b8e"/><stop offset="1" stop-color="#ed1e79"/></linearGradient><linearGradient id="e" x1="356" y1="269.84" x2="356" y2="461.34" gradientTransform="matrix(1, 0, 0, 1, 0, 0)" gradientUnits="userSpaceOnUse"><stop offset="0" stop-color="#29abe2"/><stop offset=".39" stop-color="#2aa9e0"/><stop offset=".53" stop-color="#31a4dd"/><stop offset=".64" stop-color="#3d9cd7"/><stop offset=".72" stop-color="#4e90cd"/><stop offset=".79" stop-color="#6480c2"/><stop offset=".85" stop-color="#7f6cb3"/><stop offset=".9" stop-color="#a055a2"/><stop offset=".95" stop-color="#c43b8e"/><stop offset="1" stop-color="#ed1e79"/></linearGradient></defs><path class="f" d="M182.5,432.84H36.81c-2.66,0-4.81-1.92-4.81-4.3v-130.2"/><path class="i" d="M182.5,432.84H36.81c-2.66,0-4.81-1.92-4.81-4.3v-130.2"/><path class="f" d="M281.01,35h145.69c2.66,0,4.81,1.92,4.81,4.3V169.5"/><path class="h" d="M281.01,35h146.17c2.67,0,4.83,1.92,4.83,4.29V169.34"/><path class="f" d="M182.51,32H36.82c-2.66,0-4.81,1.92-4.81,4.3V166.5"/><path class="g" d="M182.51,32H36.81c-2.66,0-4.81,1.92-4.81,4.29V166.34"/><path class="f" d="M281,432.84h145.69c2.66,0,4.81-1.92,4.81-4.3v-130.2"/><path class="j" d="M281,432.84h145.2c2.65,0,4.8-1.92,4.8-4.3v-130.2"/></svg>