<?xml version="1.0" encoding="UTF-8"?><svg id="a" xmlns="http://www.w3.org/2000/svg" xmlns:xlink="http://www.w3.org/1999/xlink" viewBox="0 0 496 496"><defs><style>.e{fill:url(#b);}.f{stroke:url(#d);}.f,.g{fill:none;stroke-miterlimit:10;stroke-width:15px;}.g{stroke:url(#c);}</style><linearGradient id="b" x1="423.36" y1="423.36" x2="72.64" y2="72.64" gradientTransform="matrix(1, 0, 0, 1, 0, 0)" gradientUnits="userSpaceOnUse"><stop offset="0" stop-color="#29abe2"/><stop offset="1" stop-color="#ed1e79"/></linearGradient><linearGradient id="c" x1="113.16" y1="429.9" x2="402.9" y2="140.16" gradientTransform="translate(0 496) rotate(-90)" xlink:href="#b"/><linearGradient id="d" x1="207.4" y1="415" x2="303.6" y2="318.79" gradientTransform="translate(0 496) rotate(-90)" xlink:href="#b"/></defs><path class="e" d="M248,15c31.46,0,61.97,6.16,90.69,18.3,27.74,11.73,52.66,28.54,74.07,49.94,21.4,21.4,38.21,46.32,49.94,74.07,12.15,28.72,18.3,59.23,18.3,90.69s-6.16,61.97-18.3,90.69c-11.73,27.74-28.54,52.66-49.94,74.07-21.4,21.4-46.32,38.21-74.07,49.94-28.72,12.15-59.23,18.3-90.69,18.3s-61.97-6.16-90.69-18.3c-27.74-11.73-52.66-28.54-74.07-49.94-21.4-21.4-38.21-46.32-49.94-74.07-12.15-28.72-18.3-59.23-18.3-90.69s6.16-61.97,18.3-90.69c11.73-27.74,28.54-52.66,49.94-74.07,21.4-21.4,46.32-38.21,74.07-49.94,28.72-12.15,59.23-18.3,90.69-18.3m0-15C111.03,0,0,111.03,0,248s111.03,248,248,248,248-111.03,248-248S384.97,0,248,0h0Z"/><path class="g" d="M413,208.31V106.47c0-.81-.66-1.47-1.47-1.47H213.47c-.81,0-1.47-.66-1.47-1.47v-29c0-1.42-1.82-2.02-2.66-.86l-38.57,53.22c-.28,.38-.72,.61-1.19,.61h-52.61c-.81,0-1.47,.66-1.47,1.47v27.06c0,.81,.66,1.47,1.47,1.47h31.62l-1.09,1.5-63.88,88.14c-.37,.51-.37,1.21,0,1.72l63.88,88.14,61.84,85.33c.84,1.15,2.66,.56,2.66-.86v-30c0-.81,.66-1.47,1.47-1.47h198.06c.81,0,1.47-.66,1.47-1.47v-114.44"/><path class="f" d="M420.5,275.6h-99.45c-6.1,0-11.05-4.84-11.05-10.8v-48.6c0-5.96,4.95-10.8,11.05-10.8h99.45"/></svg>