<svg xmlns="http://www.w3.org/2000/svg" xmlns:xlink="http://www.w3.org/1999/xlink" width="800" zoomAndPan="magnify" viewBox="0 0 600 74.999997" height="100" preserveAspectRatio="xMidYMid meet" version="1.0"><defs><clipPath id="id1"><path d="M 277 15.375 L 322 15.375 L 322 59.625 L 277 59.625 Z M 277 15.375 " clip-rule="nonzero"/></clipPath></defs><path fill="#000000" d="M 321.320312 53.25 C 319.238281 53.253906 317.230469 52.855469 315.304688 52.0625 C 313.382812 51.265625 311.683594 50.128906 310.210938 48.65625 L 299.578125 38.003906 C 299.449219 37.878906 299.382812 37.722656 299.382812 37.542969 C 299.382812 37.363281 299.449219 37.210938 299.578125 37.085938 L 310.226562 26.433594 C 310.679688 25.976562 311.160156 25.550781 311.667969 25.15625 C 312.175781 24.757812 312.707031 24.394531 313.257812 24.0625 C 313.8125 23.730469 314.382812 23.4375 314.96875 23.175781 C 315.558594 22.914062 316.160156 22.6875 316.777344 22.503906 C 317.394531 22.316406 318.019531 22.167969 318.652344 22.054688 C 319.285156 21.945312 319.925781 21.875 320.570312 21.84375 C 321.210938 21.8125 321.855469 21.820312 322.496094 21.867188 C 323.140625 21.914062 323.777344 22 324.40625 22.125 C 325.039062 22.25 325.660156 22.414062 326.273438 22.617188 C 326.882812 22.816406 327.480469 23.058594 328.0625 23.332031 C 328.644531 23.605469 329.207031 23.917969 329.75 24.261719 C 330.296875 24.605469 330.816406 24.984375 331.3125 25.390625 C 331.8125 25.800781 332.28125 26.238281 332.726562 26.703125 C 333.171875 27.171875 333.582031 27.664062 333.96875 28.179688 C 334.351562 28.695312 334.699219 29.234375 335.019531 29.796875 C 335.335938 30.355469 335.617188 30.933594 335.863281 31.527344 C 336.109375 32.125 336.316406 32.730469 336.488281 33.351562 C 336.660156 33.972656 336.792969 34.601562 336.886719 35.238281 C 336.980469 35.875 337.035156 36.515625 337.050781 37.160156 C 337.066406 37.804688 337.042969 38.445312 336.980469 39.085938 C 336.917969 39.726562 336.8125 40.363281 336.671875 40.992188 C 336.53125 41.617188 336.351562 42.234375 336.132812 42.84375 C 335.917969 43.449219 335.664062 44.039062 335.371094 44.613281 C 335.082031 45.1875 334.757812 45.742188 334.402344 46.277344 C 334.042969 46.8125 333.652344 47.324219 333.230469 47.8125 C 332.808594 48.296875 332.359375 48.757812 331.882812 49.191406 C 331.40625 49.621094 330.902344 50.023438 330.375 50.394531 C 329.851562 50.761719 329.300781 51.101562 328.734375 51.402344 C 328.164062 51.707031 327.582031 51.972656 326.980469 52.203125 C 326.378906 52.433594 325.765625 52.628906 325.140625 52.785156 C 324.515625 52.9375 323.882812 53.054688 323.246094 53.132812 C 322.605469 53.210938 321.964844 53.25 321.320312 53.25 Z M 300.9375 37.558594 L 311.144531 47.738281 C 311.8125 48.40625 312.539062 49.003906 313.328125 49.53125 C 314.113281 50.058594 314.945312 50.5 315.820312 50.863281 C 316.695312 51.226562 317.597656 51.5 318.523438 51.683594 C 319.453125 51.871094 320.390625 51.960938 321.335938 51.960938 C 322.285156 51.960938 323.222656 51.871094 324.152344 51.683594 C 325.078125 51.5 325.980469 51.226562 326.855469 50.863281 C 327.730469 50.503906 328.5625 50.058594 329.347656 49.53125 C 330.136719 49.007812 330.863281 48.410156 331.53125 47.738281 C 332.203125 47.070312 332.800781 46.339844 333.324219 45.554688 C 333.851562 44.765625 334.296875 43.9375 334.660156 43.0625 C 335.019531 42.1875 335.292969 41.285156 335.480469 40.355469 C 335.664062 39.429688 335.757812 38.492188 335.757812 37.542969 C 335.757812 36.597656 335.664062 35.660156 335.480469 34.730469 C 335.292969 33.804688 335.019531 32.902344 334.660156 32.027344 C 334.296875 31.152344 333.851562 30.320312 333.324219 29.535156 C 332.800781 28.746094 332.203125 28.019531 331.53125 27.347656 C 330.863281 26.679688 330.136719 26.082031 329.347656 25.554688 C 328.5625 25.03125 327.730469 24.585938 326.855469 24.222656 C 325.980469 23.863281 325.078125 23.589844 324.152344 23.402344 C 323.222656 23.21875 322.285156 23.125 321.335938 23.125 C 320.390625 23.125 319.453125 23.21875 318.523438 23.402344 C 317.597656 23.589844 316.695312 23.863281 315.820312 24.226562 C 314.945312 24.585938 314.113281 25.03125 313.328125 25.558594 C 312.539062 26.082031 311.8125 26.679688 311.144531 27.351562 Z M 300.9375 37.558594 " fill-opacity="1" fill-rule="nonzero"/><path fill="#000000" d="M 278.296875 53.257812 C 277.652344 53.257812 277.011719 53.21875 276.375 53.140625 C 275.734375 53.058594 275.105469 52.941406 274.480469 52.785156 C 273.855469 52.628906 273.242188 52.4375 272.640625 52.203125 C 272.042969 51.972656 271.457031 51.703125 270.890625 51.402344 C 270.324219 51.097656 269.777344 50.761719 269.25 50.390625 C 268.722656 50.019531 268.222656 49.617188 267.746094 49.1875 C 267.269531 48.753906 266.820312 48.292969 266.398438 47.808594 C 265.980469 47.320312 265.589844 46.808594 265.234375 46.273438 C 264.875 45.738281 264.550781 45.183594 264.261719 44.609375 C 263.972656 44.035156 263.71875 43.445312 263.503906 42.835938 C 263.285156 42.230469 263.109375 41.613281 262.964844 40.988281 C 262.824219 40.359375 262.722656 39.726562 262.660156 39.085938 C 262.597656 38.445312 262.574219 37.800781 262.589844 37.160156 C 262.605469 36.515625 262.660156 35.875 262.753906 35.238281 C 262.847656 34.601562 262.984375 33.972656 263.152344 33.351562 C 263.324219 32.734375 263.535156 32.125 263.78125 31.53125 C 264.027344 30.9375 264.308594 30.359375 264.625 29.800781 C 264.945312 29.238281 265.292969 28.699219 265.675781 28.183594 C 266.058594 27.667969 266.472656 27.175781 266.917969 26.710938 C 267.363281 26.242188 267.832031 25.804688 268.328125 25.398438 C 268.828125 24.988281 269.347656 24.613281 269.890625 24.269531 C 270.433594 23.925781 270.996094 23.617188 271.578125 23.339844 C 272.160156 23.066406 272.757812 22.828125 273.367188 22.625 C 273.980469 22.421875 274.601562 22.257812 275.230469 22.132812 C 275.863281 22.007812 276.5 21.921875 277.140625 21.875 C 277.785156 21.828125 278.425781 21.820312 279.070312 21.851562 C 279.710938 21.882812 280.351562 21.953125 280.984375 22.0625 C 281.617188 22.171875 282.242188 22.320312 282.859375 22.507812 C 283.472656 22.695312 284.078125 22.917969 284.664062 23.179688 C 285.253906 23.441406 285.824219 23.734375 286.375 24.066406 C 286.925781 24.398438 287.457031 24.761719 287.964844 25.15625 C 288.472656 25.554688 288.953125 25.976562 289.40625 26.433594 L 300.058594 37.097656 C 300.1875 37.222656 300.25 37.378906 300.25 37.554688 C 300.25 37.734375 300.1875 37.886719 300.058594 38.015625 L 289.40625 48.65625 C 287.9375 50.132812 286.238281 51.269531 284.3125 52.070312 C 282.386719 52.867188 280.382812 53.261719 278.296875 53.257812 Z M 278.296875 23.125 C 277.707031 23.125 277.117188 23.164062 276.53125 23.234375 C 275.945312 23.308594 275.367188 23.414062 274.792969 23.558594 C 274.222656 23.703125 273.660156 23.878906 273.109375 24.09375 C 272.558594 24.304688 272.019531 24.550781 271.5 24.828125 C 270.980469 25.105469 270.476562 25.414062 269.996094 25.753906 C 269.511719 26.097656 269.050781 26.464844 268.613281 26.859375 C 268.175781 27.257812 267.765625 27.679688 267.378906 28.125 C 266.992188 28.574219 266.636719 29.042969 266.308594 29.535156 C 265.980469 30.023438 265.683594 30.535156 265.417969 31.0625 C 265.152344 31.589844 264.917969 32.128906 264.722656 32.6875 C 264.523438 33.242188 264.359375 33.808594 264.226562 34.382812 C 264.097656 34.960938 264.003906 35.542969 263.945312 36.128906 C 263.890625 36.71875 263.867188 37.308594 263.882812 37.898438 C 263.898438 38.488281 263.945312 39.074219 264.035156 39.660156 C 264.121094 40.242188 264.242188 40.820312 264.398438 41.390625 C 264.558594 41.957031 264.75 42.515625 264.976562 43.0625 C 265.199219 43.605469 265.460938 44.136719 265.75 44.652344 C 266.042969 45.164062 266.363281 45.660156 266.714844 46.132812 C 267.066406 46.605469 267.445312 47.058594 267.851562 47.484375 C 268.261719 47.914062 268.691406 48.316406 269.148438 48.6875 C 269.605469 49.0625 270.082031 49.410156 270.582031 49.726562 C 271.082031 50.039062 271.597656 50.324219 272.132812 50.578125 C 272.664062 50.832031 273.210938 51.050781 273.773438 51.234375 C 274.332031 51.417969 274.902344 51.570312 275.484375 51.683594 C 276.0625 51.800781 276.644531 51.878906 277.234375 51.921875 C 277.824219 51.964844 278.414062 51.972656 279.003906 51.945312 C 279.59375 51.914062 280.179688 51.851562 280.761719 51.75 C 281.34375 51.648438 281.917969 51.511719 282.480469 51.339844 C 283.046875 51.167969 283.597656 50.964844 284.140625 50.722656 C 284.679688 50.484375 285.203125 50.214844 285.707031 49.910156 C 286.214844 49.605469 286.699219 49.273438 287.167969 48.910156 C 287.632812 48.546875 288.074219 48.15625 288.492188 47.738281 L 298.683594 37.542969 L 288.492188 27.351562 C 287.140625 25.996094 285.585938 24.949219 283.816406 24.21875 C 282.050781 23.484375 280.210938 23.121094 278.296875 23.125 Z M 278.296875 23.125 " fill-opacity="1" fill-rule="nonzero"/><g clip-path="url(#id1)"><path fill="#000000" d="M 299.820312 59.714844 C 299.640625 59.714844 299.488281 59.652344 299.359375 59.523438 L 277.839844 38.003906 C 277.710938 37.875 277.648438 37.722656 277.648438 37.542969 C 277.648438 37.363281 277.710938 37.210938 277.839844 37.085938 L 299.359375 15.5625 C 299.488281 15.4375 299.640625 15.375 299.820312 15.375 C 300 15.375 300.152344 15.4375 300.277344 15.5625 L 321.796875 37.097656 C 321.921875 37.222656 321.984375 37.378906 321.984375 37.554688 C 321.984375 37.734375 321.921875 37.886719 321.796875 38.015625 L 300.277344 59.535156 C 300.148438 59.65625 299.996094 59.714844 299.820312 59.714844 Z M 279.214844 37.542969 L 299.820312 58.144531 L 320.417969 37.542969 L 299.820312 16.945312 Z M 279.214844 37.542969 " fill-opacity="1" fill-rule="nonzero"/></g><path fill="#000000" d="M 278.894531 38.191406 L 1.273438 38.191406 C 0.914062 38.191406 1.273438 37.902344 1.273438 37.542969 C 1.273438 37.1875 0.914062 36.898438 1.273438 36.898438 L 278.894531 36.898438 C 279.070312 36.898438 279.222656 36.960938 279.351562 37.085938 C 279.476562 37.210938 279.539062 37.367188 279.539062 37.542969 C 279.539062 37.722656 279.476562 37.875 279.351562 38.003906 C 279.222656 38.128906 279.070312 38.191406 278.894531 38.191406 Z M 278.894531 38.191406 " fill-opacity="1" fill-rule="nonzero"/><path fill="#000000" d="M 598.367188 38.191406 L 320.742188 38.191406 C 320.5625 38.191406 320.410156 38.128906 320.28125 38.003906 C 320.15625 37.875 320.09375 37.722656 320.09375 37.542969 C 320.09375 37.367188 320.15625 37.210938 320.28125 37.085938 C 320.410156 36.960938 320.5625 36.898438 320.742188 36.898438 L 598.367188 36.898438 C 598.722656 36.898438 598.367188 37.1875 598.367188 37.542969 C 598.367188 37.902344 598.722656 38.191406 598.367188 38.191406 Z M 598.367188 38.191406 " fill-opacity="1" fill-rule="nonzero"/></svg>